<svg width="200" height="200" viewBox="0 0 200 200" fill="none" xmlns="http://www.w3.org/2000/svg">
<path d="M56 125V30H81.103V70.695H81.3759L118.758 30H148.499L101.022 80.1277V70.0213L150 125H120.122L81.3759 82.1489H81.103V125H56Z" fill="#1F1F1F"/>
<path d="M191.525 139.999V19.9997C191.525 16.7653 190.472 14.2077 188.132 11.8677C185.792 9.52775 183.235 8.47465 180 8.47458H19.9997C16.7653 8.47465 14.2077 9.52774 11.8677 11.8677C9.52774 14.2077 8.47465 16.7653 8.47458 19.9997V179.54L36.4903 151.526H180V160.001H39.9993L0 200V19.9997C7.86552e-05 14.4998 1.95768 9.79086 5.87427 5.87427C9.79086 1.95768 14.4998 7.86565e-05 19.9997 0H180L181.022 0.0231727C186.085 0.252584 190.454 2.20231 194.126 5.87427C198.042 9.79086 200 14.4998 200 19.9997V139.999C200 145.499 198.042 150.208 194.126 154.125L193.381 154.836C189.867 158.049 185.748 159.763 181.022 159.977L180 160.001V151.526C183.235 151.526 185.792 150.473 188.132 148.133C190.472 145.793 191.525 143.234 191.525 139.999Z" fill="#1F1F1F"/>
</svg>
