<svg width="229" height="203" viewBox="0 0 229 203" fill="none" xmlns="http://www.w3.org/2000/svg">
<path d="M0 2C0 0.895433 0.895431 0 2 0H227C228.105 0 229 0.895431 229 2V201C229 202.105 228.105 203 227 203H2C0.895432 203 0 202.105 0 201V2Z" fill="#151515"/>
<path d="M181.927 77V26.0909H192.69V68.1257H214.515V77H181.927Z" fill="#EAEAEA"/>
<path d="M141.838 77H130.304L147.879 26.0909H161.749L179.299 77H167.765L155.013 37.7244H154.615L141.838 77ZM141.117 56.9893H168.362V65.3913H141.117V56.9893Z" fill="#EAEAEA"/>
<path d="M95.5478 77V26.0909H106.311V68.1257H128.137V77H95.5478Z" fill="#EAEAEA"/>
<path d="M56.1864 77V26.0909H90.4904V34.9652H66.9499V47.0959H88.7255V55.9702H66.9499V68.1257H90.5898V77H56.1864Z" fill="#EAEAEA"/>
<path d="M11.4247 77V26.0909H22.1882V48.5376H22.8594L41.1797 26.0909H54.081L35.1889 48.8857L54.3047 77H41.4283L27.483 56.0696L22.1882 62.5327V77H11.4247Z" fill="#EAEAEA"/>
<path d="M197.853 126.261C197.58 123.511 196.41 121.375 194.342 119.852C192.274 118.33 189.467 117.568 185.921 117.568C183.512 117.568 181.478 117.909 179.819 118.591C178.16 119.25 176.887 120.17 176.001 121.352C175.137 122.534 174.705 123.875 174.705 125.375C174.66 126.625 174.921 127.716 175.49 128.648C176.08 129.58 176.887 130.386 177.91 131.068C178.933 131.727 180.115 132.307 181.455 132.807C182.796 133.284 184.228 133.693 185.751 134.034L192.024 135.534C195.069 136.216 197.865 137.125 200.41 138.261C202.955 139.398 205.16 140.795 207.024 142.455C208.887 144.114 210.33 146.068 211.353 148.318C212.399 150.568 212.933 153.148 212.955 156.057C212.933 160.33 211.842 164.034 209.683 167.17C207.546 170.284 204.455 172.705 200.41 174.432C196.387 176.136 191.535 176.989 185.853 176.989C180.217 176.989 175.308 176.125 171.126 174.398C166.967 172.67 163.717 170.114 161.376 166.727C159.058 163.318 157.842 159.102 157.728 154.08H172.012C172.171 156.42 172.842 158.375 174.024 159.943C175.228 161.489 176.83 162.659 178.83 163.455C180.853 164.227 183.137 164.614 185.683 164.614C188.183 164.614 190.353 164.25 192.194 163.523C194.058 162.795 195.501 161.784 196.524 160.489C197.546 159.193 198.058 157.705 198.058 156.023C198.058 154.455 197.592 153.136 196.66 152.068C195.751 151 194.41 150.091 192.637 149.341C190.887 148.591 188.74 147.909 186.194 147.295L178.592 145.386C172.705 143.955 168.058 141.716 164.649 138.67C161.24 135.625 159.546 131.523 159.569 126.364C159.546 122.136 160.671 118.443 162.944 115.284C165.24 112.125 168.387 109.659 172.387 107.886C176.387 106.114 180.933 105.227 186.024 105.227C191.205 105.227 195.728 106.114 199.592 107.886C203.478 109.659 206.501 112.125 208.66 115.284C210.819 118.443 211.933 122.102 212.001 126.261H197.853Z" fill="#EAEAEA"/>
<path d="M74.0544 106.182H92.259L111.486 153.091H112.304L131.532 106.182H149.736V176H135.418V130.557H134.839L116.77 175.659H107.02L88.9522 130.386H88.3726V176H74.0544V106.182Z" fill="#EAEAEA"/>
<path d="M50.9432 126.261C50.6705 123.511 49.5 121.375 47.4318 119.852C45.3636 118.33 42.5568 117.568 39.0114 117.568C36.6023 117.568 34.5682 117.909 32.9091 118.591C31.25 119.25 29.9773 120.17 29.0909 121.352C28.2273 122.534 27.7955 123.875 27.7955 125.375C27.75 126.625 28.0114 127.716 28.5795 128.648C29.1705 129.58 29.9773 130.386 31 131.068C32.0227 131.727 33.2045 132.307 34.5455 132.807C35.8864 133.284 37.3182 133.693 38.8409 134.034L45.1136 135.534C48.1591 136.216 50.9546 137.125 53.5 138.261C56.0455 139.398 58.25 140.795 60.1136 142.455C61.9773 144.114 63.4205 146.068 64.4432 148.318C65.4886 150.568 66.0227 153.148 66.0455 156.057C66.0227 160.33 64.9318 164.034 62.7727 167.17C60.6364 170.284 57.5455 172.705 53.5 174.432C49.4773 176.136 44.625 176.989 38.9432 176.989C33.3068 176.989 28.3977 176.125 24.2159 174.398C20.0568 172.67 16.8068 170.114 14.4659 166.727C12.1477 163.318 10.9318 159.102 10.8182 154.08H25.1023C25.2614 156.42 25.9318 158.375 27.1136 159.943C28.3182 161.489 29.9205 162.659 31.9205 163.455C33.9432 164.227 36.2273 164.614 38.7727 164.614C41.2727 164.614 43.4432 164.25 45.2841 163.523C47.1477 162.795 48.5909 161.784 49.6136 160.489C50.6364 159.193 51.1477 157.705 51.1477 156.023C51.1477 154.455 50.6818 153.136 49.75 152.068C48.8409 151 47.5 150.091 45.7273 149.341C43.9773 148.591 41.8295 147.909 39.2841 147.295L31.6818 145.386C25.7955 143.955 21.1477 141.716 17.7386 138.67C14.3295 135.625 12.6364 131.523 12.6591 126.364C12.6364 122.136 13.7614 118.443 16.0341 115.284C18.3295 112.125 21.4773 109.659 25.4773 107.886C29.4773 106.114 34.0227 105.227 39.1136 105.227C44.2955 105.227 48.8182 106.114 52.6818 107.886C56.5682 109.659 59.5909 112.125 61.75 115.284C63.9091 118.443 65.0227 122.102 65.0909 126.261H50.9432Z" fill="#EAEAEA"/>
</svg>
